<mxfile host="app.diagrams.net" modified="2023-06-12T08:52:05.948Z" agent="Mozilla/5.0 (Windows NT 10.0; Win64; x64) AppleWebKit/537.36 (KHTML, like Gecko) Chrome/114.0.0.0 Safari/537.36" etag="83gZugeMfuXu-iRkdycj" version="21.3.8" type="device">
  <diagram name="Page-1" id="jE9_Ny7zacltV2LYeuiw">
    <mxGraphModel dx="1235" dy="1781" grid="1" gridSize="10" guides="1" tooltips="1" connect="1" arrows="1" fold="1" page="1" pageScale="1" pageWidth="850" pageHeight="1100" math="0" shadow="0">
      <root>
        <mxCell id="0" />
        <mxCell id="1" parent="0" />
        <mxCell id="teNvgoAa5VFsvgRmOalm-21" style="edgeStyle=orthogonalEdgeStyle;rounded=0;orthogonalLoop=1;jettySize=auto;html=1;entryX=0.5;entryY=0;entryDx=0;entryDy=0;" edge="1" parent="1" source="_d4l0Of2Ugj4WHg13rGI-1" target="teNvgoAa5VFsvgRmOalm-1">
          <mxGeometry relative="1" as="geometry">
            <Array as="points">
              <mxPoint x="413" y="40" />
              <mxPoint x="290" y="40" />
            </Array>
          </mxGeometry>
        </mxCell>
        <mxCell id="teNvgoAa5VFsvgRmOalm-22" style="edgeStyle=orthogonalEdgeStyle;rounded=0;orthogonalLoop=1;jettySize=auto;html=1;entryX=0.5;entryY=0;entryDx=0;entryDy=0;" edge="1" parent="1" source="_d4l0Of2Ugj4WHg13rGI-1" target="teNvgoAa5VFsvgRmOalm-4">
          <mxGeometry relative="1" as="geometry">
            <Array as="points">
              <mxPoint x="413" y="40" />
              <mxPoint x="530" y="40" />
            </Array>
          </mxGeometry>
        </mxCell>
        <mxCell id="_d4l0Of2Ugj4WHg13rGI-1" value="Start" style="ellipse;whiteSpace=wrap;html=1;" parent="1" vertex="1">
          <mxGeometry x="352.5" y="-30" width="120" height="60" as="geometry" />
        </mxCell>
        <mxCell id="_d4l0Of2Ugj4WHg13rGI-15" style="edgeStyle=orthogonalEdgeStyle;rounded=0;orthogonalLoop=1;jettySize=auto;html=1;entryX=0.5;entryY=0;entryDx=0;entryDy=0;" parent="1" target="_d4l0Of2Ugj4WHg13rGI-4" edge="1">
          <mxGeometry relative="1" as="geometry">
            <mxPoint x="290" y="380" as="sourcePoint" />
          </mxGeometry>
        </mxCell>
        <mxCell id="_d4l0Of2Ugj4WHg13rGI-19" style="edgeStyle=orthogonalEdgeStyle;rounded=0;orthogonalLoop=1;jettySize=auto;html=1;entryX=0;entryY=0.5;entryDx=0;entryDy=0;" parent="1" source="_d4l0Of2Ugj4WHg13rGI-4" edge="1">
          <mxGeometry relative="1" as="geometry">
            <mxPoint x="230" y="350" as="targetPoint" />
            <Array as="points">
              <mxPoint x="190" y="470" />
              <mxPoint x="190" y="350" />
            </Array>
          </mxGeometry>
        </mxCell>
        <mxCell id="teNvgoAa5VFsvgRmOalm-10" style="edgeStyle=orthogonalEdgeStyle;rounded=0;orthogonalLoop=1;jettySize=auto;html=1;entryX=0.5;entryY=0;entryDx=0;entryDy=0;" edge="1" parent="1" source="_d4l0Of2Ugj4WHg13rGI-4" target="teNvgoAa5VFsvgRmOalm-8">
          <mxGeometry relative="1" as="geometry" />
        </mxCell>
        <mxCell id="_d4l0Of2Ugj4WHg13rGI-4" value="Is movement detected?" style="rhombus;whiteSpace=wrap;html=1;" parent="1" vertex="1">
          <mxGeometry x="240" y="420" width="100" height="100" as="geometry" />
        </mxCell>
        <mxCell id="_d4l0Of2Ugj4WHg13rGI-22" style="edgeStyle=orthogonalEdgeStyle;rounded=0;orthogonalLoop=1;jettySize=auto;html=1;entryX=0.5;entryY=0;entryDx=0;entryDy=0;exitX=0.5;exitY=1;exitDx=0;exitDy=0;" parent="1" source="teNvgoAa5VFsvgRmOalm-12" target="_d4l0Of2Ugj4WHg13rGI-12" edge="1">
          <mxGeometry relative="1" as="geometry">
            <mxPoint x="410" y="890" as="sourcePoint" />
          </mxGeometry>
        </mxCell>
        <mxCell id="_d4l0Of2Ugj4WHg13rGI-25" style="edgeStyle=orthogonalEdgeStyle;rounded=0;orthogonalLoop=1;jettySize=auto;html=1;endArrow=none;endFill=0;" parent="1" source="_d4l0Of2Ugj4WHg13rGI-8" edge="1">
          <mxGeometry relative="1" as="geometry">
            <mxPoint x="190" y="460" as="targetPoint" />
          </mxGeometry>
        </mxCell>
        <mxCell id="_d4l0Of2Ugj4WHg13rGI-26" style="edgeStyle=orthogonalEdgeStyle;rounded=0;orthogonalLoop=1;jettySize=auto;html=1;endArrow=none;endFill=0;" parent="1" source="_d4l0Of2Ugj4WHg13rGI-8" edge="1">
          <mxGeometry relative="1" as="geometry">
            <mxPoint x="630" y="460" as="targetPoint" />
          </mxGeometry>
        </mxCell>
        <mxCell id="teNvgoAa5VFsvgRmOalm-13" style="edgeStyle=orthogonalEdgeStyle;rounded=0;orthogonalLoop=1;jettySize=auto;html=1;exitX=0.5;exitY=1;exitDx=0;exitDy=0;entryX=0.5;entryY=0;entryDx=0;entryDy=0;" edge="1" parent="1" source="_d4l0Of2Ugj4WHg13rGI-8" target="teNvgoAa5VFsvgRmOalm-12">
          <mxGeometry relative="1" as="geometry" />
        </mxCell>
        <mxCell id="_d4l0Of2Ugj4WHg13rGI-8" value="Was movement detected at the same time?" style="rhombus;whiteSpace=wrap;html=1;" parent="1" vertex="1">
          <mxGeometry x="347.5" y="620" width="125" height="120" as="geometry" />
        </mxCell>
        <mxCell id="_d4l0Of2Ugj4WHg13rGI-10" value="End" style="ellipse;whiteSpace=wrap;html=1;" parent="1" vertex="1">
          <mxGeometry x="350" y="1030" width="120" height="60" as="geometry" />
        </mxCell>
        <mxCell id="_d4l0Of2Ugj4WHg13rGI-20" style="edgeStyle=orthogonalEdgeStyle;rounded=0;orthogonalLoop=1;jettySize=auto;html=1;entryX=1;entryY=0.5;entryDx=0;entryDy=0;" parent="1" source="_d4l0Of2Ugj4WHg13rGI-11" target="teNvgoAa5VFsvgRmOalm-7" edge="1">
          <mxGeometry relative="1" as="geometry">
            <mxPoint x="590" y="350" as="targetPoint" />
            <Array as="points">
              <mxPoint x="630" y="470" />
              <mxPoint x="630" y="270" />
            </Array>
          </mxGeometry>
        </mxCell>
        <mxCell id="teNvgoAa5VFsvgRmOalm-11" style="edgeStyle=orthogonalEdgeStyle;rounded=0;orthogonalLoop=1;jettySize=auto;html=1;exitX=0;exitY=0.5;exitDx=0;exitDy=0;entryX=0.5;entryY=0;entryDx=0;entryDy=0;" edge="1" parent="1" source="_d4l0Of2Ugj4WHg13rGI-11" target="teNvgoAa5VFsvgRmOalm-8">
          <mxGeometry relative="1" as="geometry" />
        </mxCell>
        <mxCell id="_d4l0Of2Ugj4WHg13rGI-11" value="Is movement detected?" style="rhombus;whiteSpace=wrap;html=1;" parent="1" vertex="1">
          <mxGeometry x="480" y="420" width="100" height="100" as="geometry" />
        </mxCell>
        <mxCell id="_d4l0Of2Ugj4WHg13rGI-23" style="edgeStyle=orthogonalEdgeStyle;rounded=0;orthogonalLoop=1;jettySize=auto;html=1;exitX=0.5;exitY=1;exitDx=0;exitDy=0;entryX=0.5;entryY=0;entryDx=0;entryDy=0;" parent="1" source="_d4l0Of2Ugj4WHg13rGI-12" target="_d4l0Of2Ugj4WHg13rGI-10" edge="1">
          <mxGeometry relative="1" as="geometry" />
        </mxCell>
        <mxCell id="teNvgoAa5VFsvgRmOalm-23" style="edgeStyle=orthogonalEdgeStyle;rounded=0;orthogonalLoop=1;jettySize=auto;html=1;entryX=1;entryY=0.5;entryDx=0;entryDy=0;" edge="1" parent="1" source="_d4l0Of2Ugj4WHg13rGI-12" target="teNvgoAa5VFsvgRmOalm-7">
          <mxGeometry relative="1" as="geometry">
            <mxPoint x="620" y="430" as="targetPoint" />
            <Array as="points">
              <mxPoint x="630" y="950" />
              <mxPoint x="630" y="270" />
            </Array>
          </mxGeometry>
        </mxCell>
        <mxCell id="teNvgoAa5VFsvgRmOalm-25" style="edgeStyle=orthogonalEdgeStyle;rounded=0;orthogonalLoop=1;jettySize=auto;html=1;entryX=0;entryY=0.5;entryDx=0;entryDy=0;" edge="1" parent="1" source="_d4l0Of2Ugj4WHg13rGI-12" target="teNvgoAa5VFsvgRmOalm-6">
          <mxGeometry relative="1" as="geometry">
            <mxPoint x="240" y="950" as="targetPoint" />
            <Array as="points">
              <mxPoint x="190" y="950" />
              <mxPoint x="190" y="350" />
            </Array>
          </mxGeometry>
        </mxCell>
        <mxCell id="_d4l0Of2Ugj4WHg13rGI-12" value="Turn off hardware?" style="rhombus;whiteSpace=wrap;html=1;" parent="1" vertex="1">
          <mxGeometry x="355" y="900" width="110" height="100" as="geometry" />
        </mxCell>
        <mxCell id="_d4l0Of2Ugj4WHg13rGI-24" value="Yes" style="text;html=1;align=center;verticalAlign=middle;resizable=0;points=[];autosize=1;strokeColor=none;fillColor=none;" parent="1" vertex="1">
          <mxGeometry x="390" y="440" width="40" height="30" as="geometry" />
        </mxCell>
        <mxCell id="_d4l0Of2Ugj4WHg13rGI-28" value="No" style="text;html=1;align=center;verticalAlign=middle;resizable=0;points=[];autosize=1;strokeColor=none;fillColor=none;" parent="1" vertex="1">
          <mxGeometry x="310" y="650" width="40" height="30" as="geometry" />
        </mxCell>
        <mxCell id="_d4l0Of2Ugj4WHg13rGI-29" value="No" style="text;html=1;align=center;verticalAlign=middle;resizable=0;points=[];autosize=1;strokeColor=none;fillColor=none;" parent="1" vertex="1">
          <mxGeometry x="465" y="650" width="40" height="30" as="geometry" />
        </mxCell>
        <mxCell id="_d4l0Of2Ugj4WHg13rGI-30" value="No" style="text;html=1;align=center;verticalAlign=middle;resizable=0;points=[];autosize=1;strokeColor=none;fillColor=none;" parent="1" vertex="1">
          <mxGeometry x="200" y="445" width="40" height="30" as="geometry" />
        </mxCell>
        <mxCell id="_d4l0Of2Ugj4WHg13rGI-31" value="No" style="text;html=1;align=center;verticalAlign=middle;resizable=0;points=[];autosize=1;strokeColor=none;fillColor=none;" parent="1" vertex="1">
          <mxGeometry x="570" y="445" width="40" height="30" as="geometry" />
        </mxCell>
        <mxCell id="_d4l0Of2Ugj4WHg13rGI-33" value="Yes" style="text;html=1;align=center;verticalAlign=middle;resizable=0;points=[];autosize=1;strokeColor=none;fillColor=none;" parent="1" vertex="1">
          <mxGeometry x="370" y="740" width="40" height="30" as="geometry" />
        </mxCell>
        <mxCell id="_d4l0Of2Ugj4WHg13rGI-34" value="Yes" style="text;html=1;align=center;verticalAlign=middle;resizable=0;points=[];autosize=1;strokeColor=none;fillColor=none;" parent="1" vertex="1">
          <mxGeometry x="360" y="990" width="40" height="30" as="geometry" />
        </mxCell>
        <mxCell id="_d4l0Of2Ugj4WHg13rGI-36" value="No" style="text;html=1;align=center;verticalAlign=middle;resizable=0;points=[];autosize=1;strokeColor=none;fillColor=none;" parent="1" vertex="1">
          <mxGeometry x="460" y="920" width="40" height="30" as="geometry" />
        </mxCell>
        <mxCell id="teNvgoAa5VFsvgRmOalm-16" style="edgeStyle=orthogonalEdgeStyle;rounded=0;orthogonalLoop=1;jettySize=auto;html=1;entryX=0.5;entryY=0;entryDx=0;entryDy=0;" edge="1" parent="1" source="teNvgoAa5VFsvgRmOalm-1" target="teNvgoAa5VFsvgRmOalm-2">
          <mxGeometry relative="1" as="geometry" />
        </mxCell>
        <mxCell id="teNvgoAa5VFsvgRmOalm-1" value="Turn on Illegal Lane Change Device 1" style="whiteSpace=wrap;html=1;" vertex="1" parent="1">
          <mxGeometry x="230" y="80" width="120" height="60" as="geometry" />
        </mxCell>
        <mxCell id="teNvgoAa5VFsvgRmOalm-17" style="edgeStyle=orthogonalEdgeStyle;rounded=0;orthogonalLoop=1;jettySize=auto;html=1;" edge="1" parent="1" source="teNvgoAa5VFsvgRmOalm-2" target="teNvgoAa5VFsvgRmOalm-3">
          <mxGeometry relative="1" as="geometry" />
        </mxCell>
        <mxCell id="teNvgoAa5VFsvgRmOalm-2" value="Device 1 connects to WiFi network and subscribes to &quot;ILC&quot; MQTT topic" style="whiteSpace=wrap;html=1;" vertex="1" parent="1">
          <mxGeometry x="230" y="160" width="120" height="60" as="geometry" />
        </mxCell>
        <mxCell id="teNvgoAa5VFsvgRmOalm-18" style="edgeStyle=orthogonalEdgeStyle;rounded=0;orthogonalLoop=1;jettySize=auto;html=1;entryX=0.5;entryY=0;entryDx=0;entryDy=0;" edge="1" parent="1" source="teNvgoAa5VFsvgRmOalm-3" target="teNvgoAa5VFsvgRmOalm-6">
          <mxGeometry relative="1" as="geometry" />
        </mxCell>
        <mxCell id="teNvgoAa5VFsvgRmOalm-3" value="Device 1 connects to Device 2 via ESP-NOW Protocol (Receiver)" style="whiteSpace=wrap;html=1;" vertex="1" parent="1">
          <mxGeometry x="230" y="240" width="120" height="60" as="geometry" />
        </mxCell>
        <mxCell id="teNvgoAa5VFsvgRmOalm-19" style="edgeStyle=orthogonalEdgeStyle;rounded=0;orthogonalLoop=1;jettySize=auto;html=1;" edge="1" parent="1" source="teNvgoAa5VFsvgRmOalm-4" target="teNvgoAa5VFsvgRmOalm-5">
          <mxGeometry relative="1" as="geometry" />
        </mxCell>
        <mxCell id="teNvgoAa5VFsvgRmOalm-4" value="Turn on Illegal Lane Change Device 2" style="whiteSpace=wrap;html=1;" vertex="1" parent="1">
          <mxGeometry x="470" y="80" width="120" height="60" as="geometry" />
        </mxCell>
        <mxCell id="teNvgoAa5VFsvgRmOalm-20" style="edgeStyle=orthogonalEdgeStyle;rounded=0;orthogonalLoop=1;jettySize=auto;html=1;" edge="1" parent="1" source="teNvgoAa5VFsvgRmOalm-5" target="teNvgoAa5VFsvgRmOalm-7">
          <mxGeometry relative="1" as="geometry" />
        </mxCell>
        <mxCell id="teNvgoAa5VFsvgRmOalm-5" value="Device 2 connects to Device 1 via ESP-NOW (Sender)" style="whiteSpace=wrap;html=1;" vertex="1" parent="1">
          <mxGeometry x="470" y="160" width="120" height="60" as="geometry" />
        </mxCell>
        <mxCell id="teNvgoAa5VFsvgRmOalm-6" value="Device 1 PIR sensor awaits movement" style="whiteSpace=wrap;html=1;" vertex="1" parent="1">
          <mxGeometry x="230" y="320" width="120" height="60" as="geometry" />
        </mxCell>
        <mxCell id="teNvgoAa5VFsvgRmOalm-15" style="edgeStyle=orthogonalEdgeStyle;rounded=0;orthogonalLoop=1;jettySize=auto;html=1;entryX=0.5;entryY=0;entryDx=0;entryDy=0;" edge="1" parent="1" source="teNvgoAa5VFsvgRmOalm-7" target="_d4l0Of2Ugj4WHg13rGI-11">
          <mxGeometry relative="1" as="geometry" />
        </mxCell>
        <mxCell id="teNvgoAa5VFsvgRmOalm-7" value="Device 2 PIR sensor awaits movement" style="whiteSpace=wrap;html=1;" vertex="1" parent="1">
          <mxGeometry x="470" y="240" width="120" height="60" as="geometry" />
        </mxCell>
        <mxCell id="teNvgoAa5VFsvgRmOalm-9" style="edgeStyle=orthogonalEdgeStyle;rounded=0;orthogonalLoop=1;jettySize=auto;html=1;entryX=0.5;entryY=0;entryDx=0;entryDy=0;" edge="1" parent="1" source="teNvgoAa5VFsvgRmOalm-8" target="_d4l0Of2Ugj4WHg13rGI-8">
          <mxGeometry relative="1" as="geometry" />
        </mxCell>
        <mxCell id="teNvgoAa5VFsvgRmOalm-8" value="Device 1 determines if both sensors were triggered at the same time" style="whiteSpace=wrap;html=1;" vertex="1" parent="1">
          <mxGeometry x="350" y="520" width="120" height="60" as="geometry" />
        </mxCell>
        <mxCell id="teNvgoAa5VFsvgRmOalm-12" value="Device 1 sends a signal: &quot;1 ILC&quot; to the Recording System to save the video via MQTT" style="whiteSpace=wrap;html=1;" vertex="1" parent="1">
          <mxGeometry x="340" y="780" width="140" height="80" as="geometry" />
        </mxCell>
        <mxCell id="teNvgoAa5VFsvgRmOalm-24" value="No" style="text;html=1;align=center;verticalAlign=middle;resizable=0;points=[];autosize=1;strokeColor=none;fillColor=none;" vertex="1" parent="1">
          <mxGeometry x="315" y="920" width="40" height="30" as="geometry" />
        </mxCell>
      </root>
    </mxGraphModel>
  </diagram>
</mxfile>
